<?xml version="1.0" standalone="no"?>
<!DOCTYPE svg PUBLIC "-//W3C//DTD SVG 20010904//EN"
 "http://www.w3.org/TR/2001/REC-SVG-20010904/DTD/svg10.dtd">
<svg version="1.0" xmlns="http://www.w3.org/2000/svg"
 width="700.000000pt" height="700.000000pt" viewBox="0 0 700.000000 700.000000"
 preserveAspectRatio="xMidYMid meet">
<metadata>
Created by potrace 1.11, written by Peter Selinger 2001-2013
</metadata>
<g transform="translate(0.000000,700.000000) scale(0.100000,-0.100000)"
fill="#000000" stroke="none">
<path d="M4149 6195 c-7 -11 -11 -22 -10 -24 2 -2 -2 -7 -7 -10 -13 -8 -192
-270 -192 -281 0 -5 -4 -10 -8 -12 -5 -1 -20 -19 -33 -39 -13 -21 -65 -97
-115 -170 -50 -74 -103 -152 -117 -174 -15 -22 -30 -44 -35 -50 -31 -40 -50
-73 -45 -79 3 -3 1 -6 -5 -6 -5 0 -21 -17 -33 -37 -13 -21 -28 -43 -34 -50
-20 -25 -31 -39 -79 -113 -27 -41 -62 -92 -78 -112 -16 -21 -27 -38 -24 -38 3
0 -4 -11 -15 -24 -12 -13 -20 -27 -19 -31 1 -4 -2 -11 -8 -14 -20 -13 -82
-112 -77 -122 4 -5 2 -8 -3 -7 -10 3 -72 -75 -72 -91 0 -5 -7 -12 -16 -15 -8
-3 -13 -10 -10 -15 4 -5 3 -11 -1 -13 -9 -3 -123 -168 -138 -198 -5 -11 -13
-20 -17 -20 -4 0 -14 -15 -23 -34 -9 -18 -24 -42 -33 -52 -10 -11 -32 -42 -50
-70 -18 -28 -41 -62 -52 -74 -11 -13 -20 -27 -20 -31 0 -4 -12 -21 -26 -38
-14 -17 -22 -31 -17 -31 4 0 3 -4 -3 -8 -6 -4 -28 -32 -48 -62 -21 -30 -41
-57 -44 -60 -4 -3 -14 -18 -22 -35 -8 -16 -17 -32 -20 -35 -22 -21 -58 -79
-53 -84 4 -3 2 -6 -4 -6 -12 0 -66 -79 -66 -97 0 -6 -4 -11 -8 -10 -7 2 -89
-115 -133 -187 -10 -17 -21 -33 -25 -36 -3 -3 -10 -13 -16 -22 -5 -9 -46 -69
-90 -133 -44 -64 -84 -124 -90 -133 -5 -10 -16 -24 -23 -32 -7 -8 -33 -46 -59
-85 -25 -38 -65 -98 -89 -132 -24 -35 -41 -63 -37 -63 4 0 0 -6 -9 -12 -22
-18 -111 -150 -111 -165 0 -7 -3 -10 -7 -8 -4 2 -13 -7 -20 -20 -7 -14 -17
-25 -22 -25 -4 0 -8 -5 -8 -10 0 -11 -47 -87 -67 -108 -13 -13 -17 -28 -14
-45 1 -5 -3 -6 -8 -3 -5 3 -28 -22 -50 -56 -49 -75 -67 -100 -194 -286 -53
-78 -97 -144 -97 -147 0 -3 -11 -18 -25 -33 -14 -15 -25 -32 -25 -39 0 -7 -3
-13 -8 -13 -11 0 -57 -80 -54 -93 2 -7 0 -9 -4 -5 -7 8 -54 -53 -54 -71 0 -5
-4 -11 -8 -13 -8 -3 -138 -187 -167 -235 -5 -10 -15 -23 -22 -30 -6 -7 -21
-29 -34 -50 -12 -21 -36 -55 -52 -75 -16 -21 -25 -38 -21 -38 4 0 0 -6 -11
-13 -11 -9 -15 -19 -10 -27 5 -8 4 -11 -2 -7 -6 4 -31 -24 -55 -61 -60 -91
-197 -291 -220 -321 -10 -13 -15 -28 -11 -35 3 -6 3 -8 -2 -4 -7 7 -55 -54
-55 -70 0 -4 25 -7 55 -8 30 0 55 4 55 9 0 4 6 5 13 0 18 -11 67 -12 67 -1 0
5 6 6 13 1 16 -10 227 -11 227 0 0 4 6 5 13 0 18 -11 67 -12 67 -1 0 5 6 6 13
1 16 -10 227 -11 227 0 0 4 6 5 13 0 17 -10 227 -11 227 0 0 4 6 5 13 0 17
-11 227 -10 227 1 0 4 6 4 13 -1 7 -5 161 -9 370 -9 l358 1 19 25 c11 14 59
84 107 155 48 72 90 132 93 135 3 3 10 12 15 21 18 30 130 194 135 199 3 3 25
34 49 70 24 36 87 128 139 205 53 77 147 217 211 310 63 94 119 175 123 180 5
6 19 26 31 45 13 19 44 65 70 102 26 37 47 72 47 77 0 6 5 11 10 11 6 0 10 5
10 10 0 6 9 19 21 31 11 11 18 27 15 35 -3 8 -2 12 3 9 6 -3 27 21 48 52 21
32 46 67 55 77 10 11 18 24 18 28 0 5 9 18 20 30 11 12 20 28 20 35 0 7 4 13
8 13 4 0 16 15 27 33 10 17 27 41 37 51 10 11 18 25 18 31 0 7 9 20 20 30 11
10 20 24 20 31 0 7 4 14 9 16 8 3 46 57 85 122 10 17 21 33 25 36 3 3 11 12
16 21 6 9 34 51 63 93 29 41 52 79 51 82 0 4 3 10 8 13 16 11 72 98 68 105 -3
3 0 2 6 -3 10 -8 11 -99 9 -856 0 -11 1 -389 2 -840 l3 -820 990 0 990 0 0
2720 0 2720 -991 0 c-987 1 -992 1 -1005 -20z m-342 -910 c0 -8 -4 -12 -9 -9
-5 3 -6 10 -3 15 9 13 12 11 12 -6z m-83 -163 c3 -5 -1 -9 -9 -9 -8 0 -12 4
-9 9 3 4 7 8 9 8 2 0 6 -4 9 -8z m-159 -161 c3 -5 2 -12 -3 -15 -5 -3 -9 1 -9
9 0 17 3 19 12 6z m255 -77 c0 -8 -19 -13 -24 -6 -3 5 1 9 9 9 8 0 15 -2 15
-3z m-90 -880 c0 -8 -19 -13 -24 -6 -3 5 1 9 9 9 8 0 15 -2 15 -3z m-405 -73
c3 -5 2 -12 -3 -15 -5 -3 -9 1 -9 9 0 17 3 19 12 6z m242 -96 c0 -8 -4 -12 -9
-9 -5 3 -6 10 -3 15 9 13 12 11 12 -6z m-393 -73 c3 -5 -1 -9 -9 -9 -8 0 -12
4 -9 9 3 4 7 8 9 8 2 0 6 -4 9 -8z m640 0 c3 -5 -1 -9 -9 -9 -8 0 -12 4 -9 9
3 4 7 8 9 8 2 0 6 -4 9 -8z m-407 -87 c0 -8 -4 -12 -9 -9 -5 3 -6 10 -3 15 9
13 12 11 12 -6z m238 -64 c3 -5 2 -12 -3 -15 -5 -3 -9 1 -9 9 0 17 3 19 12 6z
m-395 -87 c0 -8 -19 -13 -24 -6 -3 5 1 9 9 9 8 0 15 -2 15 -3z m235 -73 c3 -5
2 -12 -3 -15 -5 -3 -9 1 -9 9 0 17 3 19 12 6z m320 0 c3 -5 2 -12 -3 -15 -5
-3 -9 1 -9 9 0 17 3 19 12 6z m-1345 -167 c0 -8 -19 -13 -24 -6 -3 5 1 9 9 9
8 0 15 -2 15 -3z m874 -2 c3 -5 -1 -9 -9 -9 -8 0 -12 4 -9 9 3 4 7 8 9 8 2 0
6 -4 9 -8z m320 0 c3 -5 -1 -9 -9 -9 -8 0 -12 4 -9 9 3 4 7 8 9 8 2 0 6 -4 9
-8z m-1284 -78 c0 -8 -19 -13 -24 -6 -3 5 1 9 9 9 8 0 15 -2 15 -3z m-70 -80
c0 -8 -19 -13 -24 -6 -3 5 1 9 9 9 8 0 15 -2 15 -3z m145 -163 c3 -5 2 -12 -3
-15 -5 -3 -9 1 -9 9 0 17 3 19 12 6z m-81 -239 c3 -5 -1 -9 -9 -9 -8 0 -12 4
-9 9 3 4 7 8 9 8 2 0 6 -4 9 -8z m-157 -157 c0 -8 -4 -12 -9 -9 -5 3 -6 10 -3
15 9 13 12 11 12 -6z m320 0 c0 -8 -4 -12 -9 -9 -5 3 -6 10 -3 15 9 13 12 11
12 -6z m1053 -1 c0 -8 -19 -13 -24 -6 -3 5 1 9 9 9 8 0 15 -2 15 -3z m-1693
-79 c0 -8 -4 -12 -9 -9 -5 3 -6 10 -3 15 9 13 12 11 12 -6z m78 -4 c3 -5 2
-12 -3 -15 -5 -3 -9 1 -9 9 0 17 3 19 12 6z m320 0 c3 -5 2 -12 -3 -15 -5 -3
-9 1 -9 9 0 17 3 19 12 6z m1122 -76 c0 -8 -4 -12 -9 -9 -5 3 -6 10 -3 15 9
13 12 11 12 -6z m-1667 -81 c0 -8 -19 -13 -24 -6 -3 5 1 9 9 9 8 0 15 -2 15
-3z m400 0 c0 -8 -19 -13 -24 -6 -3 5 1 9 9 9 8 0 15 -2 15 -3z m320 0 c0 -8
-19 -13 -24 -6 -3 5 1 9 9 9 8 0 15 -2 15 -3z m800 -80 c0 -8 -19 -13 -24 -6
-3 5 1 9 9 9 8 0 15 -2 15 -3z m-1615 -83 c3 -5 2 -12 -3 -15 -5 -3 -9 1 -9 9
0 17 3 19 12 6z m655 3 c0 -8 -19 -13 -24 -6 -3 5 1 9 9 9 8 0 15 -2 15 -3z
m-253 -79 c0 -8 -4 -12 -9 -9 -5 3 -6 10 -3 15 9 13 12 11 12 -6z m-562 -84
c3 -5 2 -12 -3 -15 -5 -3 -9 1 -9 9 0 17 3 19 12 6z m335 3 c0 -8 -19 -13 -24
-6 -3 5 1 9 9 9 8 0 15 -2 15 -3z m384 -82 c3 -5 -1 -9 -9 -9 -8 0 -12 4 -9 9
3 4 7 8 9 8 2 0 6 -4 9 -8z m-719 -71 c3 -5 2 -12 -3 -15 -5 -3 -9 1 -9 9 0
17 3 19 12 6z m-71 -249 c3 -5 -1 -9 -9 -9 -8 0 -12 4 -9 9 3 4 7 8 9 8 2 0 6
-4 9 -8z m-84 -238 c0 -8 -19 -13 -24 -6 -3 5 1 9 9 9 8 0 15 -2 15 -3z m1290
0 c0 -8 -19 -13 -24 -6 -3 5 1 9 9 9 8 0 15 -2 15 -3z m-173 -159 c0 -8 -4
-12 -9 -9 -5 3 -6 10 -3 15 9 13 12 11 12 -6z m-242 -84 c3 -5 2 -12 -3 -15
-5 -3 -9 1 -9 9 0 17 3 19 12 6z m-241 -79 c3 -5 -1 -9 -9 -9 -8 0 -12 4 -9 9
3 4 7 8 9 8 2 0 6 -4 9 -8z"/>
</g>
</svg>
